<mxfile host="app.diagrams.net" agent="Mozilla/5.0 (Windows NT 10.0; Win64; x64) AppleWebKit/537.36 (KHTML, like Gecko) Chrome/132.0.0.0 Safari/537.36" version="26.0.10">
  <diagram name="Page-1" id="aOjkDBSUR7-tQSMnt7Wr">
    <mxGraphModel dx="1618" dy="869" grid="1" gridSize="10" guides="1" tooltips="1" connect="1" arrows="1" fold="1" page="1" pageScale="1" pageWidth="2339" pageHeight="3300" background="light-dark(#F6F6F6,#121212)" math="0" shadow="1">
      <root>
        <mxCell id="0" />
        <mxCell id="1" parent="0" />
        <mxCell id="vLMfIEjQn7lxfKPMjl9A-77" value="" style="whiteSpace=wrap;html=1;dashed=1;fillColor=none;strokeColor=#F19C99;strokeWidth=2;shadow=0;movable=1;resizable=1;rotatable=1;deletable=1;editable=1;locked=0;connectable=1;" vertex="1" parent="1">
          <mxGeometry x="640" y="1000" width="520" height="200" as="geometry" />
        </mxCell>
        <mxCell id="vLMfIEjQn7lxfKPMjl9A-119" value="" style="whiteSpace=wrap;html=1;dashed=1;fillColor=none;strokeColor=#7EA6E0;strokeWidth=2;" vertex="1" parent="1">
          <mxGeometry x="400" y="760" width="520" height="180" as="geometry" />
        </mxCell>
        <mxCell id="vLMfIEjQn7lxfKPMjl9A-74" value="v" style="whiteSpace=wrap;html=1;dashed=1;fillColor=none;strokeColor=#7EA6E0;strokeWidth=2;" vertex="1" parent="1">
          <mxGeometry x="400" y="540" width="520" height="200" as="geometry" />
        </mxCell>
        <mxCell id="vLMfIEjQn7lxfKPMjl9A-72" value="" style="whiteSpace=wrap;html=1;dashed=1;strokeWidth=2;fillColor=none;strokeColor=#9AB4D5;" vertex="1" parent="1">
          <mxGeometry x="950" y="540" width="530" height="401.25" as="geometry" />
        </mxCell>
        <mxCell id="vLMfIEjQn7lxfKPMjl9A-71" value="" style="whiteSpace=wrap;html=1;dashed=1;strokeWidth=2;shadow=0;fillColor=none;strokeColor=#006982;" vertex="1" parent="1">
          <mxGeometry x="400" y="80" width="1080" height="440" as="geometry" />
        </mxCell>
        <mxCell id="vLMfIEjQn7lxfKPMjl9A-13" value="" style="rounded=0;whiteSpace=wrap;html=1;labelBackgroundColor=none;fillColor=light-dark(#e6e6e6, #202020);strokeColor=light-dark(#393d41, #babdc0);" vertex="1" parent="1">
          <mxGeometry x="1150" y="110" width="190" height="390" as="geometry" />
        </mxCell>
        <mxCell id="vLMfIEjQn7lxfKPMjl9A-6" value="Suppression des valeurs NaN" style="rounded=0;whiteSpace=wrap;html=1;labelBackgroundColor=none;fillColor=#dae8fc;strokeColor=#6c8ebf;" vertex="1" parent="1">
          <mxGeometry x="1185" y="120" width="110" height="50" as="geometry" />
        </mxCell>
        <mxCell id="vLMfIEjQn7lxfKPMjl9A-7" value="Suppression des duplications" style="rounded=0;whiteSpace=wrap;html=1;labelBackgroundColor=none;fillColor=#dae8fc;strokeColor=#6c8ebf;" vertex="1" parent="1">
          <mxGeometry x="1185" y="200" width="110" height="50" as="geometry" />
        </mxCell>
        <mxCell id="vLMfIEjQn7lxfKPMjl9A-9" value="Suppression des stop words" style="rounded=0;whiteSpace=wrap;html=1;labelBackgroundColor=none;fillColor=#dae8fc;strokeColor=#6c8ebf;" vertex="1" parent="1">
          <mxGeometry x="1185" y="280" width="110" height="50" as="geometry" />
        </mxCell>
        <mxCell id="vLMfIEjQn7lxfKPMjl9A-10" value="Normalisation" style="rounded=0;whiteSpace=wrap;html=1;labelBackgroundColor=none;fillColor=#dae8fc;strokeColor=#6c8ebf;" vertex="1" parent="1">
          <mxGeometry x="1185" y="350" width="110" height="50" as="geometry" />
        </mxCell>
        <mxCell id="vLMfIEjQn7lxfKPMjl9A-11" value="Suppression des URLs" style="rounded=0;whiteSpace=wrap;html=1;labelBackgroundColor=none;fillColor=#dae8fc;strokeColor=#6c8ebf;" vertex="1" parent="1">
          <mxGeometry x="1185" y="420" width="110" height="50" as="geometry" />
        </mxCell>
        <mxCell id="vLMfIEjQn7lxfKPMjl9A-39" value="" style="edgeStyle=orthogonalEdgeStyle;rounded=0;orthogonalLoop=1;jettySize=auto;html=1;labelBackgroundColor=none;strokeColor=#A8201A;fontColor=default;" edge="1" parent="1" source="vLMfIEjQn7lxfKPMjl9A-26" target="vLMfIEjQn7lxfKPMjl9A-38">
          <mxGeometry relative="1" as="geometry">
            <Array as="points">
              <mxPoint x="900" y="280" />
              <mxPoint x="900" y="280" />
            </Array>
          </mxGeometry>
        </mxCell>
        <mxCell id="vLMfIEjQn7lxfKPMjl9A-26" value="" style="rounded=0;whiteSpace=wrap;html=1;labelBackgroundColor=none;fillColor=light-dark(#e6e6e6, #202020);strokeColor=#36393d;" vertex="1" parent="1">
          <mxGeometry x="680" y="110" width="200" height="390" as="geometry" />
        </mxCell>
        <mxCell id="vLMfIEjQn7lxfKPMjl9A-20" value="&lt;br&gt;&lt;div&gt;&lt;span style=&quot;forced-color-adjust: auto; color: light-dark(rgb(0, 0, 0), rgb(255, 255, 255)); font-variant-ligatures: none; font-variant-numeric: normal; font-variant-east-asian: normal; font-variant-alternates: normal; font-variant-position: normal; font-variant-emoji: normal; -webkit-text-stroke-color: rgb(0, 0, 0); text-wrap-style: initial; background: none 0% 0% / auto repeat scroll padding-box border-box rgba(0, 0, 0, 0); text-decoration-style: solid; text-decoration-color: rgb(0, 0, 0); accent-color: auto; place-content: normal; place-items: normal; place-self: auto; alignment-baseline: auto; anchor-name: none; anchor-scope: none; animation: 0s ease 0s 1 normal none running none; animation-composition: replace; app-region: none; appearance: none; aspect-ratio: auto; backdrop-filter: none; backface-visibility: visible; background-blend-mode: normal; baseline-shift: 0px; baseline-source: auto; border-image: none 100% / 1 / 0 stretch; border-color: rgb(0, 0, 0); border-collapse: separate; border-end-end-radius: 0px; border-end-start-radius: 0px; border-width: 0px; border-style: none; border-spacing: 0px; border-start-end-radius: 0px; border-start-start-radius: 0px; border-radius: 0px; inset: auto; box-decoration-break: slice; box-shadow: none; box-sizing: content-box; break-after: auto; break-before: auto; break-inside: auto; buffered-rendering: auto; caption-side: top; caret-color: rgb(0, 0, 0); clear: none; clip: auto; clip-path: none; clip-rule: nonzero; color-interpolation: srgb; color-interpolation-filters: linearrgb; color-rendering: auto; color-scheme: normal; columns: auto; column-fill: balance; gap: normal; column-rule: 0px rgb(0, 0, 0); column-span: none; contain: none; contain-intrinsic-block-size: none; contain-intrinsic-size: none; contain-intrinsic-inline-size: none; container: none; content: normal; content-visibility: visible; counter-increment: none; counter-reset: none; counter-set: none; cursor: text; cx: 0px; cy: 0px; d: none; direction: ltr; display: inline; dominant-baseline: auto; empty-cells: show; field-sizing: fixed; fill: rgb(0, 0, 0); fill-opacity: 1; fill-rule: nonzero; filter: none; flex: 0 1 auto; flex-flow: row; float: none; flood-color: rgb(0, 0, 0); flood-opacity: 1; font-family: WordVisi_MSFontService, Helvetica, Helvetica_EmbeddedFont, sans-serif; font-feature-settings: normal; font-kerning: none; font-optical-sizing: auto; font-palette: normal; font-size-adjust: none; font-stretch: 100%; font-synthesis: weight style small-caps; font-variation-settings: normal; grid-area: auto; grid: none; height: auto; hyphenate-character: auto; hyphenate-limit-chars: auto; hyphens: manual; image-orientation: from-image; image-rendering: auto; initial-letter: normal; inline-size: auto; inset-block: auto; inset-inline: auto; interpolate-size: numeric-only; isolation: auto; lighting-color: rgb(255, 255, 255); line-break: auto; line-height: 19.7625px; list-style: outside none disc; margin: 0px; marker: none; mask: none; mask-type: luminance; math-depth: 0; math-shift: normal; math-style: normal; max-height: none; max-width: none; min-height: 0px; min-width: 0px; mix-blend-mode: normal; object-fit: fill; object-position: 50% 50%; object-view-box: none; offset: normal; opacity: 1; order: 0; outline: rgb(0, 0, 0) none 0px; outline-offset: 0px; overflow: visible; overflow-anchor: auto; overflow-clip-margin: 0px; overflow-wrap: break-word; overlay: none; overscroll-behavior-block: auto; overscroll-behavior-inline: auto; overscroll-behavior: auto; padding: 0px; page: auto; paint-order: normal; perspective: none; perspective-origin: 0px 0px; pointer-events: auto; position: static; position-anchor: auto; position-area: none; position-try: none; position-visibility: always; quotes: auto; r: 0px; resize: none; rotate: none; ruby-align: space-around; ruby-position: over; rx: auto; ry: auto; scale: none; scroll-behavior: auto; scroll-margin-block: 0px; scroll-margin: 0px; scroll-margin-inline: 0px; scroll-padding-block: auto; scroll-padding: auto; scroll-padding-inline: auto; scroll-snap-align: none; scroll-snap-stop: normal; scroll-snap-type: none; scroll-timeline: none; scrollbar-color: auto; scrollbar-gutter: auto; scrollbar-width: auto; shape-image-threshold: 0; shape-margin: 0px; shape-outside: none; shape-rendering: auto; speak: normal; stop-color: rgb(0, 0, 0); stop-opacity: 1; stroke: none; stroke-dasharray: none; stroke-dashoffset: 0px; stroke-linecap: butt; stroke-linejoin: miter; stroke-miterlimit: 4; stroke-opacity: 1; stroke-width: 1px; tab-size: 8; table-layout: auto; text-align: left; text-align-last: auto; text-anchor: start; text-combine-upright: none; text-decoration-skip-ink: auto; text-emphasis: none rgb(0, 0, 0); text-emphasis-position: over; text-orientation: mixed; text-overflow: clip; text-rendering: auto; text-shadow: none; text-size-adjust: auto; text-spacing-trim: normal; text-underline-offset: auto; text-underline-position: auto; timeline-scope: none; touch-action: auto; transform: none; transform-box: view-box; transform-origin: 0px 0px; transform-style: flat; transition: all; translate: none; unicode-bidi: normal; user-select: text; vector-effect: none; vertical-align: baseline; view-timeline: none; view-transition-class: none; view-transition-name: none; visibility: visible; border-block-end: 0px none rgb(0, 0, 0); border-block-start: 0px none rgb(0, 0, 0); border-inline-end: 0px none rgb(0, 0, 0); -webkit-border-image: none; border-inline-start: 0px none rgb(0, 0, 0); -webkit-box-align: stretch; -webkit-box-decoration-break: slice; -webkit-box-direction: normal; -webkit-box-flex: 0; -webkit-box-ordinal-group: 1; -webkit-box-orient: horizontal; -webkit-box-pack: start; -webkit-font-smoothing: auto; -webkit-line-break: auto; -webkit-line-clamp: none; -webkit-locale: &amp;quot;fr-FR&amp;quot;; block-size: auto; margin-block: 0px; margin-inline: 0px; -webkit-mask-box-image-source: none; -webkit-mask-box-image-slice: 0 fill; -webkit-mask-box-image-width: auto; -webkit-mask-box-image-outset: 0; -webkit-mask-box-image-repeat: stretch; max-block-size: none; max-inline-size: none; min-block-size: 0px; min-inline-size: 0px; padding-block: 0px; padding-inline: 0px; -webkit-print-color-adjust: economy; -webkit-rtl-ordering: logical; -webkit-ruby-position: before; -webkit-tap-highlight-color: rgba(0, 0, 0, 0); -webkit-text-combine: none; -webkit-text-fill-color: rgb(0, 0, 0); -webkit-text-orientation: vertical-right; -webkit-text-security: none; -webkit-user-drag: none; -webkit-user-modify: read-only; -webkit-writing-mode: horizontal-tb; white-space-collapse: preserve; width: auto; will-change: auto; word-break: normal; writing-mode: horizontal-tb; x: 0px; y: 0px; z-index: auto; zoom: 1;&quot; class=&quot;TextRun SCXW198306186 BCX0&quot; lang=&quot;FR-FR&quot; data-contrast=&quot;auto&quot;&gt;&lt;span class=&quot;NormalTextRun SCXW198306186 BCX0&quot;&gt;Identification de la cible &lt;/span&gt;&lt;/span&gt;&lt;font style=&quot;color: light-dark(rgb(0, 0, 0), rgb(255, 255, 255)); background-color: transparent;&quot;&gt;(site ilBoursa et STB Finance )&lt;/font&gt;&lt;/div&gt;" style="rounded=0;whiteSpace=wrap;html=1;labelBackgroundColor=none;fillColor=#dae8fc;strokeColor=#6c8ebf;" vertex="1" parent="1">
          <mxGeometry x="700" y="130" width="150" height="70" as="geometry" />
        </mxCell>
        <mxCell id="vLMfIEjQn7lxfKPMjl9A-21" value="&lt;span style=&quot;font-size: 13px;&quot;&gt;Analyse de la structure du site&lt;/span&gt;" style="rounded=0;whiteSpace=wrap;html=1;labelBackgroundColor=none;fillColor=#dae8fc;strokeColor=#6c8ebf;" vertex="1" parent="1">
          <mxGeometry x="700" y="230" width="150" height="50" as="geometry" />
        </mxCell>
        <mxCell id="vLMfIEjQn7lxfKPMjl9A-22" value="&lt;br&gt;&lt;div&gt;&lt;span style=&quot;forced-color-adjust: auto; accent-color: auto; place-content: normal; place-items: normal; place-self: auto; alignment-baseline: auto; anchor-name: none; anchor-scope: none; animation: 0s ease 0s 1 normal none running none; animation-composition: replace; app-region: none; appearance: none; aspect-ratio: auto; backdrop-filter: none; backface-visibility: visible; background: none 0% 0% / auto repeat scroll padding-box border-box rgba(0, 0, 0, 0); background-blend-mode: normal; baseline-shift: 0px; baseline-source: auto; border-image: none 100% / 1 / 0 stretch; border-color: rgb(0, 0, 0); border-collapse: separate; border-end-end-radius: 0px; border-end-start-radius: 0px; border-width: 0px; border-style: none; border-spacing: 0px; border-start-end-radius: 0px; border-start-start-radius: 0px; border-radius: 0px; inset: auto; box-decoration-break: slice; box-shadow: none; box-sizing: content-box; break-after: auto; break-before: auto; break-inside: auto; buffered-rendering: auto; caption-side: top; caret-color: rgb(0, 0, 0); clear: none; clip: auto; clip-path: none; clip-rule: nonzero; color: rgb(0, 0, 0); color-interpolation: srgb; color-interpolation-filters: linearrgb; color-rendering: auto; color-scheme: normal; columns: auto; column-fill: balance; gap: normal; column-rule: 0px rgb(0, 0, 0); column-span: none; contain: none; contain-intrinsic-block-size: none; contain-intrinsic-size: none; contain-intrinsic-inline-size: none; container: none; content: normal; content-visibility: visible; counter-increment: none; counter-reset: none; counter-set: none; cursor: text; cx: 0px; cy: 0px; d: none; direction: ltr; display: inline; dominant-baseline: auto; empty-cells: show; field-sizing: fixed; fill: rgb(0, 0, 0); fill-opacity: 1; fill-rule: nonzero; filter: none; flex: 0 1 auto; flex-flow: row; float: none; flood-color: rgb(0, 0, 0); flood-opacity: 1; font-family: WordVisi_MSFontService, Helvetica, Helvetica_EmbeddedFont, sans-serif; font-feature-settings: normal; font-kerning: none; font-optical-sizing: auto; font-palette: normal; font-size-adjust: none; font-stretch: 100%; font-synthesis: weight style small-caps; font-variant-ligatures: none; font-variant-numeric: normal; font-variant-east-asian: normal; font-variant-alternates: normal; font-variant-position: normal; font-variant-emoji: normal; font-variation-settings: normal; grid-area: auto; grid: none; height: auto; hyphenate-character: auto; hyphenate-limit-chars: auto; hyphens: manual; image-orientation: from-image; image-rendering: auto; initial-letter: normal; inline-size: auto; inset-block: auto; inset-inline: auto; interpolate-size: numeric-only; isolation: auto; lighting-color: rgb(255, 255, 255); line-break: auto; line-height: 19.7625px; list-style: outside none disc; margin: 0px; marker: none; mask: none; mask-type: luminance; math-depth: 0; math-shift: normal; math-style: normal; max-height: none; max-width: none; min-height: 0px; min-width: 0px; mix-blend-mode: normal; object-fit: fill; object-position: 50% 50%; object-view-box: none; offset: normal; opacity: 1; order: 0; outline: rgb(0, 0, 0) none 0px; outline-offset: 0px; overflow: visible; overflow-anchor: auto; overflow-clip-margin: 0px; overflow-wrap: break-word; overlay: none; overscroll-behavior-block: auto; overscroll-behavior-inline: auto; overscroll-behavior: auto; padding: 0px; page: auto; paint-order: normal; perspective: none; perspective-origin: 0px 0px; pointer-events: auto; position: static; position-anchor: auto; position-area: none; position-try: none; position-visibility: always; quotes: auto; r: 0px; resize: none; rotate: none; ruby-align: space-around; ruby-position: over; rx: auto; ry: auto; scale: none; scroll-behavior: auto; scroll-margin-block: 0px; scroll-margin: 0px; scroll-margin-inline: 0px; scroll-padding-block: auto; scroll-padding: auto; scroll-padding-inline: auto; scroll-snap-align: none; scroll-snap-stop: normal; scroll-snap-type: none; scroll-timeline: none; scrollbar-color: auto; scrollbar-gutter: auto; scrollbar-width: auto; shape-image-threshold: 0; shape-margin: 0px; shape-outside: none; shape-rendering: auto; speak: normal; stop-color: rgb(0, 0, 0); stop-opacity: 1; stroke: none; stroke-dasharray: none; stroke-dashoffset: 0px; stroke-linecap: butt; stroke-linejoin: miter; stroke-miterlimit: 4; stroke-opacity: 1; stroke-width: 1px; tab-size: 8; table-layout: auto; text-align: left; text-align-last: auto; text-anchor: start; text-combine-upright: none; text-decoration-style: solid; text-decoration-color: rgb(0, 0, 0); text-decoration-skip-ink: auto; text-emphasis: none rgb(0, 0, 0); text-emphasis-position: over; text-orientation: mixed; text-overflow: clip; text-rendering: auto; text-shadow: none; text-size-adjust: auto; text-spacing-trim: normal; text-underline-offset: auto; text-underline-position: auto; text-wrap-style: initial; timeline-scope: none; touch-action: auto; transform: none; transform-box: view-box; transform-origin: 0px 0px; transform-style: flat; transition: all; translate: none; unicode-bidi: normal; user-select: text; vector-effect: none; vertical-align: baseline; view-timeline: none; view-transition-class: none; view-transition-name: none; visibility: visible; border-block-end: 0px none rgb(0, 0, 0); border-block-start: 0px none rgb(0, 0, 0); border-inline-end: 0px none rgb(0, 0, 0); -webkit-border-image: none; border-inline-start: 0px none rgb(0, 0, 0); -webkit-box-align: stretch; -webkit-box-decoration-break: slice; -webkit-box-direction: normal; -webkit-box-flex: 0; -webkit-box-ordinal-group: 1; -webkit-box-orient: horizontal; -webkit-box-pack: start; -webkit-font-smoothing: auto; -webkit-line-break: auto; -webkit-line-clamp: none; -webkit-locale: &amp;quot;fr-FR&amp;quot;; block-size: auto; margin-block: 0px; margin-inline: 0px; -webkit-mask-box-image-source: none; -webkit-mask-box-image-slice: 0 fill; -webkit-mask-box-image-width: auto; -webkit-mask-box-image-outset: 0; -webkit-mask-box-image-repeat: stretch; max-block-size: none; max-inline-size: none; min-block-size: 0px; min-inline-size: 0px; padding-block: 0px; padding-inline: 0px; -webkit-print-color-adjust: economy; -webkit-rtl-ordering: logical; -webkit-ruby-position: before; -webkit-tap-highlight-color: rgba(0, 0, 0, 0); -webkit-text-combine: none; -webkit-text-fill-color: rgb(0, 0, 0); -webkit-text-orientation: vertical-right; -webkit-text-security: none; -webkit-text-stroke-color: rgb(0, 0, 0); -webkit-user-drag: none; -webkit-user-modify: read-only; -webkit-writing-mode: horizontal-tb; white-space-collapse: preserve; width: auto; will-change: auto; word-break: normal; writing-mode: horizontal-tb; x: 0px; y: 0px; z-index: auto; zoom: 1;&quot; class=&quot;TextRun SCXW14068769 BCX0&quot; lang=&quot;FR-FR&quot; data-contrast=&quot;auto&quot;&gt;&lt;span class=&quot;NormalTextRun SCXW14068769 BCX0&quot;&gt;Envoi de la requête HTTP&lt;/span&gt;&lt;/span&gt;&lt;b&gt;&lt;br&gt;&lt;/b&gt;&lt;/div&gt;" style="rounded=0;whiteSpace=wrap;html=1;labelBackgroundColor=none;fillColor=#dae8fc;strokeColor=#6c8ebf;" vertex="1" parent="1">
          <mxGeometry x="700" y="310" width="150" height="50" as="geometry" />
        </mxCell>
        <mxCell id="vLMfIEjQn7lxfKPMjl9A-23" value="&lt;span style=&quot;font-size: 13px;&quot;&gt;Extraction des données&amp;nbsp;&lt;/span&gt;" style="rounded=0;whiteSpace=wrap;html=1;labelBackgroundColor=none;fillColor=#dae8fc;strokeColor=#6c8ebf;" vertex="1" parent="1">
          <mxGeometry x="700" y="400" width="150" height="50" as="geometry" />
        </mxCell>
        <mxCell id="vLMfIEjQn7lxfKPMjl9A-25" style="edgeStyle=orthogonalEdgeStyle;rounded=0;orthogonalLoop=1;jettySize=auto;html=1;entryX=-0.016;entryY=0.419;entryDx=0;entryDy=0;entryPerimeter=0;labelBackgroundColor=none;strokeColor=#A8201A;fontColor=default;" edge="1" parent="1">
          <mxGeometry relative="1" as="geometry">
            <mxPoint x="677" y="279" as="targetPoint" />
            <mxPoint x="610" y="280" as="sourcePoint" />
            <Array as="points">
              <mxPoint x="610" y="279" />
            </Array>
          </mxGeometry>
        </mxCell>
        <mxCell id="vLMfIEjQn7lxfKPMjl9A-111" value="" style="edgeStyle=orthogonalEdgeStyle;rounded=0;orthogonalLoop=1;jettySize=auto;html=1;strokeColor=#A8201A;fontColor=#143642;fillColor=#FAE5C7;" edge="1" parent="1" source="vLMfIEjQn7lxfKPMjl9A-37" target="vLMfIEjQn7lxfKPMjl9A-67">
          <mxGeometry relative="1" as="geometry">
            <Array as="points">
              <mxPoint x="1020" y="600" />
              <mxPoint x="1020" y="600" />
            </Array>
          </mxGeometry>
        </mxCell>
        <mxCell id="vLMfIEjQn7lxfKPMjl9A-37" value="&lt;div&gt;Labellisation des actualités manuellement&lt;/div&gt;" style="rounded=0;whiteSpace=wrap;html=1;labelBackgroundColor=none;fillColor=#f9f7ed;strokeColor=#36393d;" vertex="1" parent="1">
          <mxGeometry x="960" y="440" width="120" height="60" as="geometry" />
        </mxCell>
        <mxCell id="vLMfIEjQn7lxfKPMjl9A-41" value="" style="edgeStyle=orthogonalEdgeStyle;rounded=0;orthogonalLoop=1;jettySize=auto;html=1;labelBackgroundColor=none;strokeColor=#A8201A;fontColor=default;" edge="1" parent="1" source="vLMfIEjQn7lxfKPMjl9A-38" target="vLMfIEjQn7lxfKPMjl9A-40">
          <mxGeometry relative="1" as="geometry" />
        </mxCell>
        <mxCell id="vLMfIEjQn7lxfKPMjl9A-38" value="&lt;div&gt;&lt;b&gt;&lt;br&gt;&lt;/b&gt;&lt;/div&gt;&lt;div&gt;&lt;span style=&quot;forced-color-adjust: auto; accent-color: auto; place-content: normal; place-items: normal; place-self: auto; alignment-baseline: auto; anchor-name: none; anchor-scope: none; animation: 0s ease 0s 1 normal none running none; animation-composition: replace; app-region: none; appearance: none; aspect-ratio: auto; backdrop-filter: none; backface-visibility: visible; background: none 0% 0% / auto repeat scroll padding-box border-box rgba(0, 0, 0, 0); background-blend-mode: normal; baseline-shift: 0px; baseline-source: auto; border-image: none 100% / 1 / 0 stretch; border-color: rgb(0, 0, 0); border-collapse: separate; border-end-end-radius: 0px; border-end-start-radius: 0px; border-width: 0px; border-style: none; border-spacing: 0px; border-start-end-radius: 0px; border-start-start-radius: 0px; border-radius: 0px; inset: auto; box-decoration-break: slice; box-shadow: none; box-sizing: content-box; break-after: auto; break-before: auto; break-inside: auto; buffered-rendering: auto; caption-side: top; caret-color: rgb(0, 0, 0); clear: none; clip: auto; clip-path: none; clip-rule: nonzero; color: rgb(0, 0, 0); color-interpolation: srgb; color-interpolation-filters: linearrgb; color-rendering: auto; color-scheme: normal; columns: auto; column-fill: balance; gap: normal; column-rule: 0px rgb(0, 0, 0); column-span: none; contain: none; contain-intrinsic-block-size: none; contain-intrinsic-size: none; contain-intrinsic-inline-size: none; container: none; content: normal; content-visibility: visible; counter-increment: none; counter-reset: none; counter-set: none; cursor: text; cx: 0px; cy: 0px; d: none; direction: ltr; display: inline; dominant-baseline: auto; empty-cells: show; field-sizing: fixed; fill: rgb(0, 0, 0); fill-opacity: 1; fill-rule: nonzero; filter: none; flex: 0 1 auto; flex-flow: row; float: none; flood-color: rgb(0, 0, 0); flood-opacity: 1; font-family: WordVisi_MSFontService, Helvetica, Helvetica_EmbeddedFont, sans-serif; font-feature-settings: normal; font-kerning: none; font-optical-sizing: auto; font-palette: normal; font-size-adjust: none; font-stretch: 100%; font-synthesis: weight style small-caps; font-variant-ligatures: none; font-variant-numeric: normal; font-variant-east-asian: normal; font-variant-alternates: normal; font-variant-position: normal; font-variant-emoji: normal; font-variation-settings: normal; grid-area: auto; grid: none; height: auto; hyphenate-character: auto; hyphenate-limit-chars: auto; hyphens: manual; image-orientation: from-image; image-rendering: auto; initial-letter: normal; inline-size: auto; inset-block: auto; inset-inline: auto; interpolate-size: numeric-only; isolation: auto; lighting-color: rgb(255, 255, 255); line-break: auto; line-height: 19.7625px; list-style: outside none disc; margin: 0px; marker: none; mask: none; mask-type: luminance; math-depth: 0; math-shift: normal; math-style: normal; max-height: none; max-width: none; min-height: 0px; min-width: 0px; mix-blend-mode: normal; object-fit: fill; object-position: 50% 50%; object-view-box: none; offset: normal; opacity: 1; order: 0; outline: rgb(0, 0, 0) none 0px; outline-offset: 0px; overflow: visible; overflow-anchor: auto; overflow-clip-margin: 0px; overflow-wrap: break-word; overlay: none; overscroll-behavior-block: auto; overscroll-behavior-inline: auto; overscroll-behavior: auto; padding: 0px; page: auto; paint-order: normal; perspective: none; perspective-origin: 0px 0px; pointer-events: auto; position: static; position-anchor: auto; position-area: none; position-try: none; position-visibility: always; quotes: auto; r: 0px; resize: none; rotate: none; ruby-align: space-around; ruby-position: over; rx: auto; ry: auto; scale: none; scroll-behavior: auto; scroll-margin-block: 0px; scroll-margin: 0px; scroll-margin-inline: 0px; scroll-padding-block: auto; scroll-padding: auto; scroll-padding-inline: auto; scroll-snap-align: none; scroll-snap-stop: normal; scroll-snap-type: none; scroll-timeline: none; scrollbar-color: auto; scrollbar-gutter: auto; scrollbar-width: auto; shape-image-threshold: 0; shape-margin: 0px; shape-outside: none; shape-rendering: auto; speak: normal; stop-color: rgb(0, 0, 0); stop-opacity: 1; stroke: none; stroke-dasharray: none; stroke-dashoffset: 0px; stroke-linecap: butt; stroke-linejoin: miter; stroke-miterlimit: 4; stroke-opacity: 1; stroke-width: 1px; tab-size: 8; table-layout: auto; text-align: left; text-align-last: auto; text-anchor: start; text-combine-upright: none; text-decoration-style: solid; text-decoration-color: rgb(0, 0, 0); text-decoration-skip-ink: auto; text-emphasis: none rgb(0, 0, 0); text-emphasis-position: over; text-orientation: mixed; text-overflow: clip; text-rendering: auto; text-shadow: none; text-size-adjust: auto; text-spacing-trim: normal; text-underline-offset: auto; text-underline-position: auto; text-wrap-style: initial; timeline-scope: none; touch-action: auto; transform: none; transform-box: view-box; transform-origin: 0px 0px; transform-style: flat; transition: all; translate: none; unicode-bidi: normal; user-select: text; vector-effect: none; vertical-align: baseline; view-timeline: none; view-transition-class: none; view-transition-name: none; visibility: visible; border-block-end: 0px none rgb(0, 0, 0); border-block-start: 0px none rgb(0, 0, 0); border-inline-end: 0px none rgb(0, 0, 0); -webkit-border-image: none; border-inline-start: 0px none rgb(0, 0, 0); -webkit-box-align: stretch; -webkit-box-decoration-break: slice; -webkit-box-direction: normal; -webkit-box-flex: 0; -webkit-box-ordinal-group: 1; -webkit-box-orient: horizontal; -webkit-box-pack: start; -webkit-font-smoothing: auto; -webkit-line-break: auto; -webkit-line-clamp: none; -webkit-locale: &amp;quot;fr-FR&amp;quot;; block-size: auto; margin-block: 0px; margin-inline: 0px; -webkit-mask-box-image-source: none; -webkit-mask-box-image-slice: 0 fill; -webkit-mask-box-image-width: auto; -webkit-mask-box-image-outset: 0; -webkit-mask-box-image-repeat: stretch; max-block-size: none; max-inline-size: none; min-block-size: 0px; min-inline-size: 0px; padding-block: 0px; padding-inline: 0px; -webkit-print-color-adjust: economy; -webkit-rtl-ordering: logical; -webkit-ruby-position: before; -webkit-tap-highlight-color: rgba(0, 0, 0, 0); -webkit-text-combine: none; -webkit-text-fill-color: rgb(0, 0, 0); -webkit-text-orientation: vertical-right; -webkit-text-security: none; -webkit-text-stroke-color: rgb(0, 0, 0); -webkit-user-drag: none; -webkit-user-modify: read-only; -webkit-writing-mode: horizontal-tb; white-space-collapse: preserve; width: auto; will-change: auto; word-break: normal; writing-mode: horizontal-tb; x: 0px; y: 0px; z-index: auto; zoom: 1;&quot; class=&quot;TextRun SCXW16295696 BCX0&quot; lang=&quot;FR-FR&quot; data-contrast=&quot;auto&quot;&gt;&lt;span class=&quot;NormalTextRun SCXW16295696 BCX0&quot;&gt;Stockage des données&lt;/span&gt;&lt;/span&gt;&lt;font style=&quot;font-size: 13px;&quot;&gt;&amp;nbsp;dans un fichier json&lt;/font&gt;&lt;/div&gt;" style="rounded=0;whiteSpace=wrap;html=1;labelBackgroundColor=none;fillColor=#f9f7ed;strokeColor=#36393d;" vertex="1" parent="1">
          <mxGeometry x="960" y="250" width="120" height="70" as="geometry" />
        </mxCell>
        <mxCell id="vLMfIEjQn7lxfKPMjl9A-40" value="Nettoyage et prétraitement des données&amp;nbsp;&amp;nbsp;" style="rounded=0;whiteSpace=wrap;html=1;labelBackgroundColor=none;fillColor=#b0e3e6;strokeColor=#0e8088;" vertex="1" parent="1">
          <mxGeometry x="960" y="350" width="120" height="60" as="geometry" />
        </mxCell>
        <mxCell id="vLMfIEjQn7lxfKPMjl9A-42" style="edgeStyle=orthogonalEdgeStyle;rounded=0;orthogonalLoop=1;jettySize=auto;html=1;entryX=-0.004;entryY=0.694;entryDx=0;entryDy=0;entryPerimeter=0;labelBackgroundColor=none;strokeColor=#A8201A;fontColor=default;" edge="1" parent="1" source="vLMfIEjQn7lxfKPMjl9A-40" target="vLMfIEjQn7lxfKPMjl9A-13">
          <mxGeometry relative="1" as="geometry" />
        </mxCell>
        <mxCell id="vLMfIEjQn7lxfKPMjl9A-44" value="" style="endArrow=classic;html=1;rounded=0;exitX=-0.013;exitY=0.922;exitDx=0;exitDy=0;exitPerimeter=0;entryX=1;entryY=0.5;entryDx=0;entryDy=0;labelBackgroundColor=none;strokeColor=#A8201A;fontColor=default;" edge="1" parent="1" source="vLMfIEjQn7lxfKPMjl9A-13" target="vLMfIEjQn7lxfKPMjl9A-37">
          <mxGeometry width="50" height="50" relative="1" as="geometry">
            <mxPoint x="1090" y="500" as="sourcePoint" />
            <mxPoint x="1100" y="450" as="targetPoint" />
          </mxGeometry>
        </mxCell>
        <mxCell id="vLMfIEjQn7lxfKPMjl9A-45" style="edgeStyle=orthogonalEdgeStyle;rounded=0;orthogonalLoop=1;jettySize=auto;html=1;exitX=0.5;exitY=1;exitDx=0;exitDy=0;labelBackgroundColor=none;strokeColor=#A8201A;fontColor=default;" edge="1" parent="1" source="vLMfIEjQn7lxfKPMjl9A-26" target="vLMfIEjQn7lxfKPMjl9A-26">
          <mxGeometry relative="1" as="geometry" />
        </mxCell>
        <mxCell id="vLMfIEjQn7lxfKPMjl9A-53" value="" style="edgeStyle=orthogonalEdgeStyle;rounded=0;orthogonalLoop=1;jettySize=auto;html=1;labelBackgroundColor=none;strokeColor=light-dark(#8a660a, #996500);fontColor=default;fillColor=#ffe6cc;" edge="1" parent="1" source="vLMfIEjQn7lxfKPMjl9A-50" target="vLMfIEjQn7lxfKPMjl9A-52">
          <mxGeometry relative="1" as="geometry" />
        </mxCell>
        <mxCell id="vLMfIEjQn7lxfKPMjl9A-50" value="&lt;font&gt;Application des modèles d&#39;analyse de sentiments (BERT , FinBERT,DeBERTa , RoBERTa et FinVader)&amp;nbsp;&lt;/font&gt;" style="whiteSpace=wrap;html=1;rounded=0;labelBackgroundColor=none;fillColor=#b0e3e6;strokeColor=#0e8088;" vertex="1" parent="1">
          <mxGeometry x="750" y="640" width="130" height="80" as="geometry" />
        </mxCell>
        <mxCell id="vLMfIEjQn7lxfKPMjl9A-52" value="Évaluation du modèle" style="whiteSpace=wrap;html=1;rounded=0;labelBackgroundColor=none;fillColor=#f9f7ed;strokeColor=#36393d;" vertex="1" parent="1">
          <mxGeometry x="560" y="640" width="120" height="80" as="geometry" />
        </mxCell>
        <mxCell id="vLMfIEjQn7lxfKPMjl9A-61" value="" style="edgeStyle=orthogonalEdgeStyle;rounded=0;orthogonalLoop=1;jettySize=auto;html=1;labelBackgroundColor=none;strokeColor=#A67648;fontColor=default;exitX=0;exitY=0;exitDx=0;exitDy=27.5;exitPerimeter=0;" edge="1" parent="1" source="vLMfIEjQn7lxfKPMjl9A-68" target="vLMfIEjQn7lxfKPMjl9A-60">
          <mxGeometry relative="1" as="geometry">
            <mxPoint x="960" y="840.0769230769231" as="sourcePoint" />
            <Array as="points">
              <mxPoint x="980" y="840" />
            </Array>
          </mxGeometry>
        </mxCell>
        <mxCell id="vLMfIEjQn7lxfKPMjl9A-118" value="" style="edgeStyle=orthogonalEdgeStyle;rounded=0;orthogonalLoop=1;jettySize=auto;html=1;strokeColor=#d79b00;fontColor=#143642;fillColor=#ffcd28;gradientColor=#ffa500;" edge="1" parent="1" source="vLMfIEjQn7lxfKPMjl9A-56" target="vLMfIEjQn7lxfKPMjl9A-73">
          <mxGeometry relative="1" as="geometry" />
        </mxCell>
        <mxCell id="vLMfIEjQn7lxfKPMjl9A-56" value="calcul des indicateurs techniques&amp;nbsp;" style="rounded=0;whiteSpace=wrap;html=1;labelBackgroundColor=none;fillColor=#f9f7ed;strokeColor=#36393d;" vertex="1" parent="1">
          <mxGeometry x="1340" y="810" width="120" height="60" as="geometry" />
        </mxCell>
        <mxCell id="vLMfIEjQn7lxfKPMjl9A-63" value="" style="edgeStyle=orthogonalEdgeStyle;rounded=0;orthogonalLoop=1;jettySize=auto;html=1;labelBackgroundColor=none;strokeColor=light-dark(#8a660a, #996500);fontColor=default;" edge="1" parent="1" source="vLMfIEjQn7lxfKPMjl9A-60" target="vLMfIEjQn7lxfKPMjl9A-62">
          <mxGeometry relative="1" as="geometry" />
        </mxCell>
        <mxCell id="vLMfIEjQn7lxfKPMjl9A-60" value="Nettoyage et prétraitement des données&amp;nbsp;&amp;nbsp;" style="rounded=0;whiteSpace=wrap;html=1;labelBackgroundColor=none;fillColor=#f9f7ed;strokeColor=#36393d;" vertex="1" parent="1">
          <mxGeometry x="760" y="810" width="120" height="60" as="geometry" />
        </mxCell>
        <mxCell id="vLMfIEjQn7lxfKPMjl9A-65" value="" style="edgeStyle=orthogonalEdgeStyle;rounded=0;orthogonalLoop=1;jettySize=auto;html=1;labelBackgroundColor=none;strokeColor=#A8201A;fontColor=default;entryX=0;entryY=0.5;entryDx=0;entryDy=0;" edge="1" parent="1" source="vLMfIEjQn7lxfKPMjl9A-62" target="vLMfIEjQn7lxfKPMjl9A-98">
          <mxGeometry relative="1" as="geometry">
            <mxPoint x="670" y="1110" as="targetPoint" />
            <Array as="points">
              <mxPoint x="620" y="1110" />
            </Array>
          </mxGeometry>
        </mxCell>
        <mxCell id="vLMfIEjQn7lxfKPMjl9A-91" value="" style="edgeStyle=orthogonalEdgeStyle;rounded=0;orthogonalLoop=1;jettySize=auto;html=1;strokeColor=#A8201A;fontColor=#143642;fillColor=#FAE5C7;" edge="1" parent="1" source="vLMfIEjQn7lxfKPMjl9A-62" target="vLMfIEjQn7lxfKPMjl9A-52">
          <mxGeometry relative="1" as="geometry" />
        </mxCell>
        <mxCell id="vLMfIEjQn7lxfKPMjl9A-62" value="Modèle de prédiction" style="rounded=0;whiteSpace=wrap;html=1;labelBackgroundColor=none;fillColor=#b0e3e6;strokeColor=#0e8088;" vertex="1" parent="1">
          <mxGeometry x="560" y="810" width="120" height="60" as="geometry" />
        </mxCell>
        <mxCell id="vLMfIEjQn7lxfKPMjl9A-66" value="Web Scraping" style="ellipse;whiteSpace=wrap;html=1;fillColor=#b0e3e6;labelBackgroundColor=none;strokeColor=#0e8088;" vertex="1" parent="1">
          <mxGeometry x="490" y="240" width="120" height="80" as="geometry" />
        </mxCell>
        <mxCell id="vLMfIEjQn7lxfKPMjl9A-112" value="" style="edgeStyle=orthogonalEdgeStyle;rounded=0;orthogonalLoop=1;jettySize=auto;html=1;strokeColor=#d79b00;fontColor=#143642;fillColor=#ffcd28;gradientColor=#ffa500;" edge="1" parent="1" source="vLMfIEjQn7lxfKPMjl9A-67" target="vLMfIEjQn7lxfKPMjl9A-68">
          <mxGeometry relative="1" as="geometry">
            <Array as="points">
              <mxPoint x="1030" y="780" />
              <mxPoint x="1030" y="780" />
            </Array>
          </mxGeometry>
        </mxCell>
        <mxCell id="vLMfIEjQn7lxfKPMjl9A-113" value="" style="edgeStyle=orthogonalEdgeStyle;rounded=0;orthogonalLoop=1;jettySize=auto;html=1;strokeColor=#A67648;fontColor=#143642;fillColor=#ffcd28;gradientColor=#ffa500;" edge="1" parent="1" source="vLMfIEjQn7lxfKPMjl9A-67" target="vLMfIEjQn7lxfKPMjl9A-50">
          <mxGeometry relative="1" as="geometry">
            <Array as="points">
              <mxPoint x="950" y="680" />
              <mxPoint x="950" y="680" />
            </Array>
          </mxGeometry>
        </mxCell>
        <mxCell id="vLMfIEjQn7lxfKPMjl9A-67" value="Création du dataset" style="shape=cylinder3;whiteSpace=wrap;html=1;boundedLbl=1;backgroundOutline=1;size=15;labelBackgroundColor=none;fillColor=#f9f7ed;strokeColor=#36393d;" vertex="1" parent="1">
          <mxGeometry x="980" y="630" width="110" height="80" as="geometry" />
        </mxCell>
        <mxCell id="vLMfIEjQn7lxfKPMjl9A-68" value="&lt;font style=&quot;color: rgb(26, 26, 26);&quot;&gt;Dataset final&lt;/font&gt;" style="shape=cylinder3;whiteSpace=wrap;html=1;boundedLbl=1;backgroundOutline=1;size=15;labelBackgroundColor=none;fillColor=#b0e3e6;strokeColor=#0e8088;" vertex="1" parent="1">
          <mxGeometry x="980" y="800" width="110" height="80" as="geometry" />
        </mxCell>
        <mxCell id="vLMfIEjQn7lxfKPMjl9A-114" value="" style="edgeStyle=orthogonalEdgeStyle;rounded=0;orthogonalLoop=1;jettySize=auto;html=1;strokeColor=#d79b00;fontColor=#143642;fillColor=#ffcd28;gradientColor=#ffa500;" edge="1" parent="1" source="vLMfIEjQn7lxfKPMjl9A-73" target="vLMfIEjQn7lxfKPMjl9A-68">
          <mxGeometry relative="1" as="geometry">
            <Array as="points">
              <mxPoint x="1140" y="840" />
              <mxPoint x="1140" y="840" />
            </Array>
          </mxGeometry>
        </mxCell>
        <mxCell id="vLMfIEjQn7lxfKPMjl9A-73" value="Création du dataset local" style="shape=cylinder3;whiteSpace=wrap;html=1;boundedLbl=1;backgroundOutline=1;size=15;strokeColor=#36393d;fillColor=#f9f7ed;" vertex="1" parent="1">
          <mxGeometry x="1172" y="800" width="110" height="80" as="geometry" />
        </mxCell>
        <mxCell id="vLMfIEjQn7lxfKPMjl9A-82" style="edgeStyle=orthogonalEdgeStyle;rounded=0;orthogonalLoop=1;jettySize=auto;html=1;entryX=0;entryY=0.5;entryDx=0;entryDy=0;strokeColor=#A8201A;fontColor=#143642;fillColor=#FAE5C7;entryPerimeter=0;" edge="1" parent="1" source="vLMfIEjQn7lxfKPMjl9A-75" target="vLMfIEjQn7lxfKPMjl9A-76">
          <mxGeometry relative="1" as="geometry">
            <mxPoint x="1025" y="1110.0000000000002" as="targetPoint" />
          </mxGeometry>
        </mxCell>
        <mxCell id="vLMfIEjQn7lxfKPMjl9A-75" value="Stock price forecasting" style="rounded=0;whiteSpace=wrap;html=1;strokeColor=#36393d;fillColor=#f9f7ed;" vertex="1" parent="1">
          <mxGeometry x="860" y="1080" width="120" height="60" as="geometry" />
        </mxCell>
        <mxCell id="vLMfIEjQn7lxfKPMjl9A-76" value="Prise de décision&lt;div&gt;par l&#39;investisseur&amp;nbsp;&amp;nbsp;&lt;/div&gt;" style="ellipse;whiteSpace=wrap;html=1;strokeColor=#b85450;fillColor=#f8cecc;" vertex="1" parent="1">
          <mxGeometry x="1030" y="1070" width="120" height="80" as="geometry" />
        </mxCell>
        <mxCell id="vLMfIEjQn7lxfKPMjl9A-83" value="&lt;font style=&quot;color: rgb(0, 0, 102); font-size: 18px;&quot;&gt;&lt;b style=&quot;&quot;&gt;&lt;i style=&quot;&quot;&gt;&lt;font style=&quot;&quot; face=&quot;Times New Roman&quot;&gt;&amp;nbsp;&lt;/font&gt;&lt;/i&gt;&lt;/b&gt;&lt;b style=&quot;&quot;&gt;&lt;i&gt;&lt;font face=&quot;Times New Roman&quot;&gt;Collecte et prétraitement&amp;nbsp;&lt;/font&gt;&lt;/i&gt;&lt;/b&gt;&lt;/font&gt;&lt;div&gt;&lt;font style=&quot;color: rgb(0, 0, 102); font-size: 18px;&quot;&gt;&lt;b style=&quot;&quot;&gt;&lt;i&gt;&lt;font face=&quot;Times New Roman&quot;&gt;&amp;nbsp;&lt;/font&gt;&lt;/i&gt;&lt;/b&gt;&lt;b style=&quot;background-color: transparent;&quot;&gt;&lt;i style=&quot;&quot;&gt;&lt;font style=&quot;&quot; face=&quot;Times New Roman&quot;&gt;des données&lt;/font&gt;&lt;/i&gt;&lt;/b&gt;&lt;/font&gt;&lt;/div&gt;" style="text;html=1;align=center;verticalAlign=middle;resizable=0;points=[];autosize=1;strokeColor=none;fillColor=none;fontColor=#143642;" vertex="1" parent="1">
          <mxGeometry x="400" y="110" width="210" height="60" as="geometry" />
        </mxCell>
        <mxCell id="vLMfIEjQn7lxfKPMjl9A-86" value="&lt;font face=&quot;Garamond&quot; style=&quot;color: rgb(0, 0, 102); font-size: 18px;&quot;&gt;&lt;b style=&quot;&quot;&gt;&lt;i style=&quot;&quot;&gt;Application du modèle&amp;nbsp;&lt;/i&gt;&lt;/b&gt;&lt;/font&gt;&lt;div&gt;&lt;font face=&quot;Garamond&quot; style=&quot;color: rgb(0, 0, 102); font-size: 18px;&quot;&gt;&lt;b style=&quot;&quot;&gt;&lt;i style=&quot;&quot;&gt;de prédiction&lt;/i&gt;&lt;/b&gt;&lt;/font&gt;&lt;/div&gt;" style="text;html=1;align=center;verticalAlign=middle;resizable=0;points=[];autosize=1;strokeColor=none;fillColor=none;fontColor=#143642;" vertex="1" parent="1">
          <mxGeometry x="390" y="760" width="200" height="60" as="geometry" />
        </mxCell>
        <mxCell id="vLMfIEjQn7lxfKPMjl9A-88" value="&lt;font face=&quot;Garamond&quot; style=&quot;color: rgb(0, 0, 102); font-size: 18px;&quot;&gt;&lt;b style=&quot;&quot;&gt;&lt;i style=&quot;&quot;&gt;Création du Dataset&lt;/i&gt;&lt;/b&gt;&lt;/font&gt;" style="text;html=1;align=center;verticalAlign=middle;resizable=0;points=[];autosize=1;strokeColor=none;fillColor=none;fontColor=#143642;" vertex="1" parent="1">
          <mxGeometry x="1030" y="555" width="170" height="40" as="geometry" />
        </mxCell>
        <mxCell id="vLMfIEjQn7lxfKPMjl9A-89" value="&lt;font face=&quot;Garamond&quot; style=&quot;color: rgb(0, 51, 102); font-size: 18px;&quot;&gt;&lt;span style=&quot;background-color: rgba(0, 0, 0, 0); color: rgb(0, 0, 0); font-family: WordVisi_MSFontService, Aptos, Aptos_EmbeddedFont, Aptos_MSFontService, sans-serif; font-variant-ligatures: none; text-align: left; -webkit-text-fill-color: rgb(0, 0, 0); -webkit-text-stroke-color: rgb(0, 0, 0); caret-color: rgb(0, 0, 0); white-space: pre-wrap;&quot;&gt; &lt;/span&gt;&lt;b style=&quot;&quot;&gt;&lt;i style=&quot;&quot;&gt;Prédiction et Décision&lt;/i&gt;&lt;/b&gt;&lt;/font&gt;" style="text;html=1;align=center;verticalAlign=middle;resizable=0;points=[];autosize=1;strokeColor=none;fillColor=none;fontColor=#143642;" vertex="1" parent="1">
          <mxGeometry x="645" y="1000" width="190" height="40" as="geometry" />
        </mxCell>
        <mxCell id="vLMfIEjQn7lxfKPMjl9A-102" value="" style="edgeStyle=orthogonalEdgeStyle;rounded=0;orthogonalLoop=1;jettySize=auto;html=1;strokeColor=#A8201A;fontColor=#143642;fillColor=#FAE5C7;" edge="1" parent="1" source="vLMfIEjQn7lxfKPMjl9A-98" target="vLMfIEjQn7lxfKPMjl9A-75">
          <mxGeometry relative="1" as="geometry" />
        </mxCell>
        <mxCell id="vLMfIEjQn7lxfKPMjl9A-98" value="Scores de sentiment" style="rounded=0;whiteSpace=wrap;html=1;strokeColor=#36393d;fillColor=#f9f7ed;" vertex="1" parent="1">
          <mxGeometry x="690" y="1080" width="120" height="60" as="geometry" />
        </mxCell>
        <mxCell id="vLMfIEjQn7lxfKPMjl9A-120" value="&lt;font face=&quot;Garamond&quot; style=&quot;color: rgb(0, 51, 102); font-size: 18px;&quot;&gt;&lt;b style=&quot;&quot;&gt;&lt;i style=&quot;&quot;&gt;Application des modèles d&#39;analyse&amp;nbsp;&lt;/i&gt;&lt;/b&gt;&lt;/font&gt;&lt;div&gt;&lt;font face=&quot;Garamond&quot; style=&quot;color: rgb(0, 51, 102); font-size: 18px;&quot;&gt;&lt;b style=&quot;&quot;&gt;&lt;i style=&quot;&quot;&gt;sentimentale&lt;/i&gt;&lt;/b&gt;&lt;/font&gt;&lt;/div&gt;" style="text;html=1;align=center;verticalAlign=middle;resizable=0;points=[];autosize=1;strokeColor=none;fillColor=none;fontColor=#143642;" vertex="1" parent="1">
          <mxGeometry x="400" y="555" width="280" height="60" as="geometry" />
        </mxCell>
      </root>
    </mxGraphModel>
  </diagram>
</mxfile>
